<svg width="542" height="542" viewBox="0 0 542 542" fill="none" xmlns="http://www.w3.org/2000/svg">
<rect x="2" y="2" width="537.714" height="537.714" rx="68" fill="#08090B"/>
<rect x="2" y="2" width="537.714" height="537.714" rx="68" stroke="#282B2E" stroke-width="4"/>
<path d="M133.752 199.424C139.043 191.573 144.248 184.363 149.368 177.792C154.573 171.136 159.523 165.419 164.216 160.64C168.909 155.861 173.219 152.149 177.144 149.504C181.069 146.859 184.483 145.536 187.384 145.536C188.493 145.536 189.688 145.963 190.968 146.816C192.333 147.669 193.571 148.779 194.68 150.144C195.875 151.509 196.856 153.003 197.624 154.624C198.392 156.16 198.776 157.653 198.776 159.104C193.485 160.811 188.28 163.072 183.16 165.888C178.125 168.619 173.261 171.819 168.568 175.488C163.96 179.072 159.523 183.083 155.256 187.52C151.075 191.957 147.277 196.693 143.864 201.728C145.229 205.227 146.893 208.981 148.856 212.992C150.904 216.917 153.123 220.757 155.512 224.512C157.901 228.181 160.461 231.595 163.192 234.752C165.923 237.909 168.696 240.427 171.512 242.304C171.085 243.243 170.36 244.139 169.336 244.992C168.312 245.845 167.203 246.613 166.008 247.296C164.813 248.064 163.533 248.661 162.168 249.088C160.888 249.515 159.693 249.728 158.584 249.728C156.365 249.728 154.317 248.661 152.44 246.528C150.563 244.48 148.643 241.365 146.68 237.184C144.803 232.917 142.797 227.669 140.664 221.44C138.616 215.125 136.312 207.787 133.752 199.424ZM114.424 250.368C111.181 249.6 108.493 248.235 106.36 246.272C104.227 244.395 102.264 242.005 100.472 239.104C101.24 237.483 102.136 235.349 103.16 232.704C104.269 230.059 105.592 226.816 107.128 222.976C108.664 219.051 110.499 214.4 112.632 209.024C114.765 203.563 117.24 197.205 120.056 189.952C121.848 185.344 123.299 181.461 124.408 178.304C125.603 175.147 126.584 172.075 127.352 169.088C128.205 166.016 129.016 162.645 129.784 158.976C130.552 155.307 131.448 150.656 132.472 145.024C136.056 145.707 139.299 147.285 142.2 149.76C145.187 152.235 147.747 155.221 149.88 158.72C148.941 159.915 147.832 161.749 146.552 164.224C145.357 166.613 143.992 169.515 142.456 172.928C140.92 176.341 139.213 180.139 137.336 184.32C135.459 188.501 133.496 192.939 131.448 197.632C126.84 207.872 123.213 217.259 120.568 225.792C117.923 234.24 115.875 242.432 114.424 250.368ZM189.893 232.704C189.893 229.632 190.362 225.664 191.301 220.8C192.325 215.851 193.605 210.56 195.141 204.928C196.762 199.211 198.597 193.408 200.645 187.52C202.693 181.547 204.784 175.957 206.917 170.752C209.05 165.547 211.141 160.981 213.189 157.056C215.237 153.131 217.072 150.315 218.693 148.608C219.546 148.693 220.656 149.035 222.021 149.632C223.472 150.144 224.922 150.784 226.373 151.552C227.824 152.32 229.146 153.173 230.341 154.112C231.536 154.965 232.304 155.776 232.645 156.544C230.17 158.763 227.696 162.133 225.221 166.656C222.832 171.093 220.485 176.171 218.181 181.888C215.962 187.605 213.872 193.664 211.909 200.064C209.946 206.379 208.24 212.523 206.789 218.496C205.338 224.469 204.186 230.016 203.333 235.136C202.565 240.256 202.181 244.395 202.181 247.552C202.181 249.003 202.309 249.899 202.565 250.24C200.688 250.155 199.322 249.813 198.469 249.216C197.616 248.704 196.933 248.107 196.421 247.424C195.994 246.827 195.568 246.187 195.141 245.504C194.8 244.907 194.245 244.437 193.477 244.096C192.88 243.84 192.368 243.243 191.941 242.304C191.514 241.365 191.13 240.341 190.789 239.232C190.533 238.037 190.32 236.843 190.149 235.648C189.978 234.453 189.893 233.472 189.893 232.704ZM309.884 153.728C310.14 155.179 310.311 156.203 310.396 156.8C310.567 157.312 310.652 158.037 310.652 158.976C310.652 161.792 310.012 164.437 308.732 166.912C307.537 169.301 305.873 171.008 303.74 172.032C302.033 169.728 299.943 167.765 297.468 166.144C294.993 164.437 292.263 163.072 289.276 162.048C286.375 160.939 283.345 160.128 280.188 159.616C277.031 159.104 273.959 158.848 270.972 158.848C267.985 158.848 265.169 159.104 262.524 159.616C259.964 160.043 257.66 160.683 255.612 161.536C253.649 162.304 252.071 163.285 250.876 164.48C249.767 165.675 249.212 167.04 249.212 168.576C249.468 170.453 250.62 172.373 252.668 174.336C254.716 176.213 257.233 178.091 260.22 179.968C263.207 181.76 266.492 183.552 270.076 185.344C273.745 187.136 277.329 188.843 280.828 190.464C285.18 192.512 288.935 194.432 292.092 196.224C295.249 197.931 297.852 199.851 299.9 201.984C301.948 204.032 303.484 206.379 304.508 209.024C305.532 211.669 306.044 214.869 306.044 218.624C306.044 222.976 305.319 227.072 303.868 230.912C302.417 234.667 300.284 237.952 297.468 240.768C294.737 243.584 291.409 245.76 287.484 247.296C283.559 248.917 279.164 249.728 274.3 249.728C269.521 249.728 264.359 249.003 258.812 247.552C253.265 246.101 248.06 244.096 243.196 241.536C238.417 239.061 234.407 236.203 231.164 232.96C228.007 229.632 226.428 226.133 226.428 222.464C226.428 220.757 226.897 218.581 227.836 215.936C228.86 213.291 230.652 210.517 233.212 207.616C233.468 210.176 234.833 213.205 237.308 216.704C239.868 220.203 243.665 223.445 248.7 226.432C253.393 229.163 258.215 231.168 263.164 232.448C268.199 233.643 272.892 234.24 277.244 234.24C282.023 234.24 285.905 233.643 288.892 232.448C291.879 231.253 294.225 229.845 295.932 228.224C297.639 226.517 298.833 224.811 299.516 223.104C300.199 221.397 300.583 220.032 300.668 219.008C300.583 217.301 299.772 215.68 298.236 214.144C296.785 212.523 294.78 210.987 292.22 209.536C289.745 208 286.844 206.464 283.516 204.928C280.188 203.392 276.732 201.856 273.148 200.32C267.772 197.931 263.121 195.712 259.196 193.664C255.356 191.531 252.156 189.397 249.596 187.264C247.121 185.045 245.287 182.741 244.092 180.352C242.983 177.963 242.428 175.232 242.428 172.16C242.428 167.381 243.879 162.859 246.78 158.592C249.681 154.325 253.863 151.083 259.324 148.864C262.055 147.669 264.956 146.816 268.028 146.304C271.185 145.792 274.257 145.536 277.244 145.536C282.876 145.536 288.38 146.304 293.756 147.84C299.132 149.376 304.508 151.339 309.884 153.728ZM399.759 153.728C400.015 155.179 400.186 156.203 400.271 156.8C400.442 157.312 400.527 158.037 400.527 158.976C400.527 161.792 399.887 164.437 398.607 166.912C397.412 169.301 395.748 171.008 393.615 172.032C391.908 169.728 389.818 167.765 387.343 166.144C384.868 164.437 382.138 163.072 379.151 162.048C376.25 160.939 373.22 160.128 370.063 159.616C366.906 159.104 363.834 158.848 360.847 158.848C357.86 158.848 355.044 159.104 352.399 159.616C349.839 160.043 347.535 160.683 345.487 161.536C343.524 162.304 341.946 163.285 340.751 164.48C339.642 165.675 339.087 167.04 339.087 168.576C339.343 170.453 340.495 172.373 342.543 174.336C344.591 176.213 347.108 178.091 350.095 179.968C353.082 181.76 356.367 183.552 359.951 185.344C363.62 187.136 367.204 188.843 370.703 190.464C375.055 192.512 378.81 194.432 381.967 196.224C385.124 197.931 387.727 199.851 389.775 201.984C391.823 204.032 393.359 206.379 394.383 209.024C395.407 211.669 395.919 214.869 395.919 218.624C395.919 222.976 395.194 227.072 393.743 230.912C392.292 234.667 390.159 237.952 387.343 240.768C384.612 243.584 381.284 245.76 377.359 247.296C373.434 248.917 369.039 249.728 364.175 249.728C359.396 249.728 354.234 249.003 348.687 247.552C343.14 246.101 337.935 244.096 333.071 241.536C328.292 239.061 324.282 236.203 321.039 232.96C317.882 229.632 316.303 226.133 316.303 222.464C316.303 220.757 316.772 218.581 317.711 215.936C318.735 213.291 320.527 210.517 323.087 207.616C323.343 210.176 324.708 213.205 327.183 216.704C329.743 220.203 333.54 223.445 338.575 226.432C343.268 229.163 348.09 231.168 353.039 232.448C358.074 233.643 362.767 234.24 367.119 234.24C371.898 234.24 375.78 233.643 378.767 232.448C381.754 231.253 384.1 229.845 385.807 228.224C387.514 226.517 388.708 224.811 389.391 223.104C390.074 221.397 390.458 220.032 390.543 219.008C390.458 217.301 389.647 215.68 388.111 214.144C386.66 212.523 384.655 210.987 382.095 209.536C379.62 208 376.719 206.464 373.391 204.928C370.063 203.392 366.607 201.856 363.023 200.32C357.647 197.931 352.996 195.712 349.071 193.664C345.231 191.531 342.031 189.397 339.471 187.264C336.996 185.045 335.162 182.741 333.967 180.352C332.858 177.963 332.303 175.232 332.303 172.16C332.303 167.381 333.754 162.859 336.655 158.592C339.556 154.325 343.738 151.083 349.199 148.864C351.93 147.669 354.831 146.816 357.903 146.304C361.06 145.792 364.132 145.536 367.119 145.536C372.751 145.536 378.255 146.304 383.631 147.84C389.007 149.376 394.383 151.339 399.759 153.728Z" fill="white"/>
<path d="M195.544 403.704C197.677 407.373 198.744 410.915 198.744 414.328C198.744 415.096 198.659 415.779 198.488 416.376C198.403 417.059 198.275 417.741 198.104 418.424C196.653 418.253 195.117 418.125 193.496 418.04C191.96 417.955 190.339 417.912 188.632 417.912C186.584 417.912 184.493 417.955 182.36 418.04C180.312 418.211 178.008 418.424 175.448 418.68C172.888 418.936 170.029 419.277 166.872 419.704C163.715 420.131 160.045 420.685 155.864 421.368C153.901 420.685 151.939 419.32 149.976 417.272C148.013 415.309 146.179 412.92 144.472 410.104C145.325 408.227 146.392 405.923 147.672 403.192C148.952 400.376 150.445 397.005 152.152 393.08C153.859 389.069 155.736 384.419 157.784 379.128C159.917 373.752 162.179 367.565 164.568 360.568C166.104 355.96 167.427 351.907 168.536 348.408C169.645 344.909 170.627 341.539 171.48 338.296C172.419 334.968 173.315 331.512 174.168 327.928C175.021 324.344 175.96 320.205 176.984 315.512C180.397 316.195 183.341 317.475 185.816 319.352C188.376 321.144 190.808 323.747 193.112 327.16C192.429 328.269 191.533 330.061 190.424 332.536C189.315 335.011 187.992 338.04 186.456 341.624C185.005 345.123 183.384 349.133 181.592 353.656C179.8 358.093 177.923 362.872 175.96 367.992C174.083 373.027 172.248 377.763 170.456 382.2C168.664 386.637 167.043 390.648 165.592 394.232C164.227 397.816 163.117 400.888 162.264 403.448C161.411 406.008 160.984 407.928 160.984 409.208C162.349 409.123 163.587 409.037 164.696 408.952C165.805 408.867 166.957 408.739 168.152 408.568C169.347 408.312 170.627 408.056 171.992 407.8C173.443 407.459 175.149 407.032 177.112 406.52C178.819 406.093 180.397 405.752 181.848 405.496C183.299 405.155 184.707 404.899 186.072 404.728C187.523 404.472 188.973 404.301 190.424 404.216C191.96 404.045 193.667 403.875 195.544 403.704ZM251.451 359.288C252.304 359.288 253.286 359.459 254.395 359.8C255.59 360.056 256.656 360.44 257.595 360.952C258.534 361.379 259.302 361.848 259.899 362.36C260.582 362.872 260.923 363.341 260.923 363.768C259.216 367.352 257.638 370.979 256.187 374.648C254.736 378.232 253.499 381.688 252.475 385.016C251.451 388.344 250.64 391.459 250.043 394.36C249.531 397.261 249.275 399.779 249.275 401.912C249.275 404.301 249.531 406.307 250.043 407.928C250.555 409.464 251.408 410.573 252.603 411.256C251.579 411.939 250.256 412.493 248.635 412.92C247.014 413.347 245.563 413.56 244.283 413.56C239.675 413.56 237.371 410.403 237.371 404.088C237.371 399.224 238.992 392.568 242.235 384.12C240.528 388.045 238.566 391.757 236.347 395.256C234.128 398.669 231.867 401.699 229.563 404.344C227.259 406.989 224.912 409.165 222.523 410.872C220.219 412.493 218.086 413.475 216.123 413.816C212.966 413.645 210.406 412.152 208.443 409.336C206.48 406.435 205.499 402.765 205.499 398.328C205.499 393.549 206.523 388.515 208.571 383.224C210.619 377.933 213.222 373.027 216.379 368.504C219.622 363.981 223.12 360.227 226.875 357.24C230.63 354.168 234.256 352.547 237.755 352.376C238.608 352.632 239.547 353.144 240.571 353.912C241.68 354.68 242.704 355.576 243.643 356.6C244.667 357.624 245.52 358.691 246.203 359.8C246.886 360.824 247.27 361.72 247.355 362.488C243.942 363 240.4 364.664 236.731 367.48C233.147 370.296 229.862 373.709 226.875 377.72C223.974 381.645 221.584 385.869 219.707 390.392C217.83 394.915 216.891 399.139 216.891 403.064C216.891 404.685 217.488 405.709 218.683 406.136C221.158 405.624 224.016 403.533 227.259 399.864C230.502 396.109 234.427 390.349 239.035 382.584C239.888 381.048 240.827 379.341 241.851 377.464C242.96 375.587 244.07 373.624 245.179 371.576C246.288 369.528 247.355 367.48 248.379 365.432C249.488 363.299 250.512 361.251 251.451 359.288ZM278.192 411.896C282.117 409.251 285.957 405.88 289.712 401.784C293.467 397.603 296.88 393.123 299.952 388.344C303.024 383.48 305.627 378.445 307.76 373.24C309.893 368.035 311.344 363.043 312.112 358.264C312.112 357.24 311.557 356.557 310.448 356.216C309.253 356.216 307.589 357.283 305.456 359.416C303.408 361.464 301.104 364.109 298.544 367.352C296.069 370.595 293.509 374.221 290.864 378.232C288.304 382.243 285.957 386.253 283.824 390.264C281.691 394.189 279.856 397.901 278.32 401.4C276.869 404.813 276.059 407.587 275.888 409.72C275.035 409.72 274.309 408.867 273.712 407.16C273.541 406.733 273.243 406.307 272.816 405.88C272.389 405.368 271.707 404.771 270.768 404.088C270.341 403.747 269.915 403.363 269.488 402.936C269.061 402.424 268.763 401.997 268.592 401.656C268.251 400.973 268.08 399.864 268.08 398.328C268.08 393.293 268.72 387.619 270 381.304C271.28 374.989 272.944 368.547 274.992 361.976C277.125 355.405 279.6 348.963 282.416 342.648C285.232 336.248 288.133 330.403 291.12 325.112C294.192 319.821 297.264 315.341 300.336 311.672C303.408 308.003 306.309 305.571 309.04 304.376C309.893 304.632 310.917 305.059 312.112 305.656C313.307 306.253 314.501 306.936 315.696 307.704C316.891 308.472 318 309.24 319.024 310.008C320.133 310.776 320.944 311.459 321.456 312.056C312.069 319.651 303.92 329.421 297.008 341.368C290.181 353.229 284.592 367.267 280.24 383.48C282.629 379.043 285.317 374.776 288.304 370.68C291.291 366.499 294.235 362.829 297.136 359.672C300.123 356.515 302.939 353.997 305.584 352.12C308.315 350.243 310.576 349.304 312.368 349.304C313.733 349.645 315.056 350.243 316.336 351.096C317.616 351.949 318.768 353.016 319.792 354.296C320.816 355.491 321.669 356.813 322.352 358.264C323.035 359.629 323.461 361.08 323.632 362.616C323.547 366.2 322.907 370.04 321.712 374.136C320.603 378.147 319.067 382.115 317.104 386.04C315.227 389.965 313.051 393.72 310.576 397.304C308.187 400.888 305.627 404.045 302.896 406.776C300.251 409.421 297.563 411.555 294.832 413.176C292.187 414.797 289.669 415.608 287.28 415.608C286.256 415.608 285.189 415.48 284.08 415.224C283.056 415.053 282.075 414.755 281.136 414.328C280.283 413.987 279.557 413.603 278.96 413.176C278.448 412.749 278.192 412.323 278.192 411.896ZM370.451 360.056C370.366 361.677 370.067 363.384 369.555 365.176C369.128 366.883 368.574 368.461 367.891 369.912C367.208 371.277 366.483 372.429 365.715 373.368C364.947 374.307 364.222 374.776 363.539 374.776C362.6 374.691 362.046 374.051 361.875 372.856C361.875 372.6 361.96 372.216 362.131 371.704C362.387 371.107 362.643 370.467 362.899 369.784C363.155 369.101 363.368 368.419 363.539 367.736C363.795 367.053 363.923 366.456 363.923 365.944C363.923 364.749 363.624 363.768 363.027 363C362.515 362.147 361.79 361.72 360.851 361.72C357.438 361.72 354.835 363.853 353.043 368.12C351.251 372.387 350.355 378.659 350.355 386.936C350.355 387.789 350.398 388.301 350.483 388.472C352.275 388.387 353.854 388.344 355.219 388.344C356.67 388.259 358.078 388.216 359.443 388.216C359.528 388.387 359.571 388.728 359.571 389.24C359.571 390.008 359.4 390.563 359.059 390.904C357.096 391.331 355.518 391.715 354.323 392.056C353.214 392.312 352.36 392.568 351.763 392.824C351.166 393.08 350.782 393.379 350.611 393.72C350.526 393.976 350.483 394.36 350.483 394.872C350.483 395.555 350.483 396.237 350.483 396.92C350.568 397.603 350.611 398.456 350.611 399.48C350.611 406.648 348.648 412.408 344.723 416.76C340.883 421.112 335.507 423.629 328.595 424.312C327.4 424.227 326.163 423.885 324.883 423.288C323.603 422.691 322.366 421.923 321.171 420.984C320.062 420.045 319.08 418.979 318.227 417.784C317.374 416.675 316.776 415.523 316.435 414.328C316.435 411.085 317.118 408.013 318.483 405.112C319.848 402.125 321.683 399.523 323.987 397.304C326.376 395 329.15 393.165 332.307 391.8C335.55 390.349 339.048 389.496 342.803 389.24C342.803 387.107 342.59 385.016 342.163 382.968C341.736 380.92 341.267 378.957 340.755 377.08C340.328 375.117 339.902 373.24 339.475 371.448C339.048 369.571 338.835 367.736 338.835 365.944C338.835 363.64 339.304 361.379 340.243 359.16C341.182 356.856 342.419 354.765 343.955 352.888C345.491 350.925 347.283 349.261 349.331 347.896C351.379 346.531 353.512 345.592 355.731 345.08C356.67 345.336 357.907 346.104 359.443 347.384C361.064 348.579 362.643 349.944 364.179 351.48C365.715 353.016 367.08 354.595 368.275 356.216C369.47 357.752 370.195 359.032 370.451 360.056ZM328.211 418.424C330.259 417.571 332.179 416.333 333.971 414.712C335.848 413.091 337.47 411.256 338.835 409.208C340.2 407.16 341.267 404.984 342.035 402.68C342.888 400.376 343.315 398.115 343.315 395.896C341.608 396.152 339.731 396.963 337.683 398.328C335.635 399.608 333.715 401.187 331.923 403.064C330.131 404.856 328.638 406.733 327.443 408.696C326.248 410.659 325.651 412.365 325.651 413.816C325.651 415.693 326.504 417.229 328.211 418.424Z" fill="#486249"/>
</svg>
